<svg width="320" height="121" viewBox="0 0 320 121" fill="none" xmlns="http://www.w3.org/2000/svg">
<path d="M0 0H320V49H201.088L131.456 82H0V0Z" fill="#DB0E2D"/>
<path d="M0 82H129.152C130.645 82 132.096 81.6211 133.419 80.8634L199.211 49.65C200.448 48.9344 201.856 48.5976 203.264 48.5976H320" stroke="#500D11" stroke-width="6" stroke-miterlimit="10"/>
<path d="M59.0933 71C76.2197 71 90.1034 57.3018 90.1034 40.4042C90.1034 23.5067 76.2197 9.8085 59.0933 9.8085C41.9669 9.8085 28.0833 23.5067 28.0833 40.4042C28.0833 57.3018 41.9669 71 59.0933 71Z" fill="#E8EAEB" stroke="#500D11" stroke-width="3.6586" stroke-miterlimit="10"/>
<path d="M59.2264 65.8132C73.3759 65.8132 84.8464 54.496 84.8464 40.5356C84.8464 26.5751 73.3759 15.258 59.2264 15.258C45.0769 15.258 33.6065 26.5751 33.6065 40.5356C33.6065 54.496 45.0769 65.8132 59.2264 65.8132Z" fill="#1A699F" stroke="#500D11" stroke-width="1.8293" stroke-miterlimit="10"/>
<path d="M51.1412 42.0457C56.1027 42.0457 60.1248 38.0773 60.1248 33.1821C60.1248 28.2869 56.1027 24.3185 51.1412 24.3185C46.1797 24.3185 42.1576 28.2869 42.1576 33.1821C42.1576 38.0773 46.1797 42.0457 51.1412 42.0457Z" fill="#2CACFE"/>
<path d="M139.52 28.0784C144.633 28.0784 148.779 23.9886 148.779 18.9435C148.779 13.8984 144.633 9.8085 139.52 9.8085C134.407 9.8085 130.261 13.8984 130.261 18.9435C130.261 23.9886 134.407 28.0784 139.52 28.0784Z" fill="#FF0006" stroke="#500D11" stroke-width="1.5337" stroke-miterlimit="10"/>
<path d="M136.917 19.3644C138.567 19.3644 139.904 18.0451 139.904 16.4176C139.904 14.7902 138.567 13.4709 136.917 13.4709C135.268 13.4709 133.931 14.7902 133.931 16.4176C133.931 18.0451 135.268 19.3644 136.917 19.3644Z" fill="#FF98CD"/>
<path d="M160.256 28.0784C165.369 28.0784 169.515 23.9886 169.515 18.9435C169.515 13.8984 165.369 9.8085 160.256 9.8085C155.143 9.8085 150.997 13.8984 150.997 18.9435C150.997 23.9886 155.143 28.0784 160.256 28.0784Z" fill="#FFCB67" stroke="#500D11" stroke-width="1.5337" stroke-miterlimit="10"/>
<path d="M157.696 19.3644C159.345 19.3644 160.683 18.0451 160.683 16.4176C160.683 14.7902 159.345 13.4709 157.696 13.4709C156.047 13.4709 154.709 14.7902 154.709 16.4176C154.709 18.0451 156.047 19.3644 157.696 19.3644Z" fill="#FFFECD"/>
<path d="M180.48 28.0784C185.593 28.0784 189.739 23.9886 189.739 18.9435C189.739 13.8984 185.593 9.8085 180.48 9.8085C175.367 9.8085 171.221 13.8984 171.221 18.9435C171.221 23.9886 175.367 28.0784 180.48 28.0784Z" fill="#33CB67" stroke="#500D11" stroke-width="1.5337" stroke-miterlimit="10"/>
<path d="M177.92 19.3644C179.569 19.3644 180.907 18.0451 180.907 16.4176C180.907 14.7902 179.569 13.4709 177.92 13.4709C176.271 13.4709 174.933 14.7902 174.933 16.4176C174.933 18.0451 176.271 19.3644 177.92 19.3644Z" fill="#99FE02"/>
</svg>
